<mxfile host="drawio-plugin" modified="2023-02-22T10:13:11.975Z" agent="5.0 (Windows NT 6.2; Win64; x64) AppleWebKit/537.36 (KHTML, like Gecko) Chrome/98.0.4758.102 Safari/537.36" etag="qXdAdAdVT01ZfA3GKqj-" version="20.5.3" type="embed"><diagram id="1MBQZQxyAgLh5guYNtVr" name="第 1 页"><mxGraphModel dx="1831" dy="615" grid="1" gridSize="10" guides="1" tooltips="1" connect="1" arrows="1" fold="1" page="1" pageScale="1" pageWidth="827" pageHeight="1169" math="0" shadow="0"><root><mxCell id="0"/><mxCell id="1" parent="0"/><mxCell id="ztt1CMZew3dopwFVDvJa-19" style="edgeStyle=orthogonalEdgeStyle;rounded=0;orthogonalLoop=1;jettySize=auto;html=1;entryX=0.5;entryY=0;entryDx=0;entryDy=0;" parent="1" source="ztt1CMZew3dopwFVDvJa-6" target="ztt1CMZew3dopwFVDvJa-10" edge="1"><mxGeometry relative="1" as="geometry"/></mxCell><mxCell id="ztt1CMZew3dopwFVDvJa-6" value="MainDemo" style="swimlane;fontStyle=1;align=center;verticalAlign=top;childLayout=stackLayout;horizontal=1;startSize=26;horizontalStack=0;resizeParent=1;resizeParentMax=0;resizeLast=0;collapsible=1;marginBottom=0;strokeColor=#000000;" parent="1" vertex="1"><mxGeometry x="610" y="120" width="160" height="86" as="geometry"/></mxCell><mxCell id="ztt1CMZew3dopwFVDvJa-7" value="        " style="text;strokeColor=none;fillColor=none;align=left;verticalAlign=top;spacingLeft=4;spacingRight=4;overflow=hidden;rotatable=0;points=[[0,0.5],[1,0.5]];portConstraint=eastwest;" parent="ztt1CMZew3dopwFVDvJa-6" vertex="1"><mxGeometry y="26" width="160" height="26" as="geometry"/></mxCell><mxCell id="ztt1CMZew3dopwFVDvJa-8" value="" style="line;strokeWidth=1;fillColor=none;align=left;verticalAlign=middle;spacingTop=-1;spacingLeft=3;spacingRight=3;rotatable=0;labelPosition=right;points=[];portConstraint=eastwest;" parent="ztt1CMZew3dopwFVDvJa-6" vertex="1"><mxGeometry y="52" width="160" height="8" as="geometry"/></mxCell><mxCell id="ztt1CMZew3dopwFVDvJa-9" value="+ main: void" style="text;strokeColor=none;fillColor=none;align=left;verticalAlign=top;spacingLeft=4;spacingRight=4;overflow=hidden;rotatable=0;points=[[0,0.5],[1,0.5]];portConstraint=eastwest;" parent="ztt1CMZew3dopwFVDvJa-6" vertex="1"><mxGeometry y="60" width="160" height="26" as="geometry"/></mxCell><mxCell id="ztt1CMZew3dopwFVDvJa-10" value="StategySelection" style="swimlane;fontStyle=1;align=center;verticalAlign=top;childLayout=stackLayout;horizontal=1;startSize=26;horizontalStack=0;resizeParent=1;resizeParentMax=0;resizeLast=0;collapsible=1;marginBottom=0;strokeColor=#000000;" parent="1" vertex="1"><mxGeometry x="610" y="384" width="160" height="86" as="geometry"/></mxCell><mxCell id="ztt1CMZew3dopwFVDvJa-11" value="- strategy: Strategy" style="text;strokeColor=none;fillColor=none;align=left;verticalAlign=top;spacingLeft=4;spacingRight=4;overflow=hidden;rotatable=0;points=[[0,0.5],[1,0.5]];portConstraint=eastwest;" parent="ztt1CMZew3dopwFVDvJa-10" vertex="1"><mxGeometry y="26" width="160" height="26" as="geometry"/></mxCell><mxCell id="ztt1CMZew3dopwFVDvJa-12" value="" style="line;strokeWidth=1;fillColor=none;align=left;verticalAlign=middle;spacingTop=-1;spacingLeft=3;spacingRight=3;rotatable=0;labelPosition=right;points=[];portConstraint=eastwest;" parent="ztt1CMZew3dopwFVDvJa-10" vertex="1"><mxGeometry y="52" width="160" height="8" as="geometry"/></mxCell><mxCell id="ztt1CMZew3dopwFVDvJa-13" value="+ executeStrategy(): int" style="text;strokeColor=none;fillColor=none;align=left;verticalAlign=top;spacingLeft=4;spacingRight=4;overflow=hidden;rotatable=0;points=[[0,0.5],[1,0.5]];portConstraint=eastwest;" parent="ztt1CMZew3dopwFVDvJa-10" vertex="1"><mxGeometry y="60" width="160" height="26" as="geometry"/></mxCell><mxCell id="ztt1CMZew3dopwFVDvJa-20" value="asks" style="text;html=1;align=center;verticalAlign=middle;resizable=0;points=[];autosize=1;strokeColor=none;" parent="1" vertex="1"><mxGeometry x="690" y="300" width="40" height="20" as="geometry"/></mxCell><mxCell id="ztt1CMZew3dopwFVDvJa-21" value="" style="whiteSpace=wrap;html=1;strokeColor=#000000;fillColor=none;" parent="1" vertex="1"><mxGeometry x="10" y="120" width="540" height="350" as="geometry"/></mxCell><mxCell id="ztt1CMZew3dopwFVDvJa-23" value="Srategy" style="swimlane;fontStyle=1;align=center;verticalAlign=top;childLayout=stackLayout;horizontal=1;startSize=26;horizontalStack=0;resizeParent=1;resizeParentMax=0;resizeLast=0;collapsible=1;marginBottom=0;strokeColor=#000000;fillColor=none;" parent="1" vertex="1"><mxGeometry x="200" y="140" width="160" height="86" as="geometry"/></mxCell><mxCell id="ztt1CMZew3dopwFVDvJa-24" value="  " style="text;strokeColor=none;fillColor=none;align=left;verticalAlign=top;spacingLeft=4;spacingRight=4;overflow=hidden;rotatable=0;points=[[0,0.5],[1,0.5]];portConstraint=eastwest;" parent="ztt1CMZew3dopwFVDvJa-23" vertex="1"><mxGeometry y="26" width="160" height="26" as="geometry"/></mxCell><mxCell id="ztt1CMZew3dopwFVDvJa-25" value="" style="line;strokeWidth=1;fillColor=none;align=left;verticalAlign=middle;spacingTop=-1;spacingLeft=3;spacingRight=3;rotatable=0;labelPosition=right;points=[];portConstraint=eastwest;" parent="ztt1CMZew3dopwFVDvJa-23" vertex="1"><mxGeometry y="52" width="160" height="8" as="geometry"/></mxCell><mxCell id="ztt1CMZew3dopwFVDvJa-26" value="+ doOperation(): int" style="text;strokeColor=none;fillColor=none;align=left;verticalAlign=top;spacingLeft=4;spacingRight=4;overflow=hidden;rotatable=0;points=[[0,0.5],[1,0.5]];portConstraint=eastwest;" parent="ztt1CMZew3dopwFVDvJa-23" vertex="1"><mxGeometry y="60" width="160" height="26" as="geometry"/></mxCell><mxCell id="ztt1CMZew3dopwFVDvJa-54" style="edgeStyle=orthogonalEdgeStyle;orthogonalLoop=1;jettySize=auto;html=1;curved=1;dashed=1;" parent="1" source="ztt1CMZew3dopwFVDvJa-27" edge="1"><mxGeometry relative="1" as="geometry"><mxPoint x="280" y="240" as="targetPoint"/><Array as="points"><mxPoint x="100" y="280"/><mxPoint x="280" y="280"/></Array></mxGeometry></mxCell><mxCell id="ztt1CMZew3dopwFVDvJa-27" value="Strategy1" style="swimlane;fontStyle=1;align=center;verticalAlign=top;childLayout=stackLayout;horizontal=1;startSize=26;horizontalStack=0;resizeParent=1;resizeParentMax=0;resizeLast=0;collapsible=1;marginBottom=0;strokeColor=#000000;fillColor=none;" parent="1" vertex="1"><mxGeometry x="20" y="320" width="160" height="86" as="geometry"/></mxCell><mxCell id="ztt1CMZew3dopwFVDvJa-28" value="   " style="text;strokeColor=none;fillColor=none;align=left;verticalAlign=top;spacingLeft=4;spacingRight=4;overflow=hidden;rotatable=0;points=[[0,0.5],[1,0.5]];portConstraint=eastwest;" parent="ztt1CMZew3dopwFVDvJa-27" vertex="1"><mxGeometry y="26" width="160" height="26" as="geometry"/></mxCell><mxCell id="ztt1CMZew3dopwFVDvJa-29" value="" style="line;strokeWidth=1;fillColor=none;align=left;verticalAlign=middle;spacingTop=-1;spacingLeft=3;spacingRight=3;rotatable=0;labelPosition=right;points=[];portConstraint=eastwest;" parent="ztt1CMZew3dopwFVDvJa-27" vertex="1"><mxGeometry y="52" width="160" height="8" as="geometry"/></mxCell><mxCell id="ztt1CMZew3dopwFVDvJa-30" value="+ doOperation(): int" style="text;strokeColor=none;fillColor=none;align=left;verticalAlign=top;spacingLeft=4;spacingRight=4;overflow=hidden;rotatable=0;points=[[0,0.5],[1,0.5]];portConstraint=eastwest;" parent="ztt1CMZew3dopwFVDvJa-27" vertex="1"><mxGeometry y="60" width="160" height="26" as="geometry"/></mxCell><mxCell id="ztt1CMZew3dopwFVDvJa-48" style="edgeStyle=orthogonalEdgeStyle;orthogonalLoop=1;jettySize=auto;html=1;curved=1;shadow=0;strokeColor=#000000;dashed=1;" parent="1" source="ztt1CMZew3dopwFVDvJa-31" edge="1"><mxGeometry relative="1" as="geometry"><mxPoint x="280" y="230" as="targetPoint"/></mxGeometry></mxCell><mxCell id="ztt1CMZew3dopwFVDvJa-31" value="Strategy2" style="swimlane;fontStyle=1;align=center;verticalAlign=top;childLayout=stackLayout;horizontal=1;startSize=26;horizontalStack=0;resizeParent=1;resizeParentMax=0;resizeLast=0;collapsible=1;marginBottom=0;strokeColor=#000000;fillColor=none;" parent="1" vertex="1"><mxGeometry x="200" y="320" width="160" height="86" as="geometry"/></mxCell><mxCell id="ztt1CMZew3dopwFVDvJa-32" value="   " style="text;strokeColor=none;fillColor=none;align=left;verticalAlign=top;spacingLeft=4;spacingRight=4;overflow=hidden;rotatable=0;points=[[0,0.5],[1,0.5]];portConstraint=eastwest;" parent="ztt1CMZew3dopwFVDvJa-31" vertex="1"><mxGeometry y="26" width="160" height="26" as="geometry"/></mxCell><mxCell id="ztt1CMZew3dopwFVDvJa-33" value="" style="line;strokeWidth=1;fillColor=none;align=left;verticalAlign=middle;spacingTop=-1;spacingLeft=3;spacingRight=3;rotatable=0;labelPosition=right;points=[];portConstraint=eastwest;" parent="ztt1CMZew3dopwFVDvJa-31" vertex="1"><mxGeometry y="52" width="160" height="8" as="geometry"/></mxCell><mxCell id="ztt1CMZew3dopwFVDvJa-34" value="+ doOperation(): int" style="text;strokeColor=none;fillColor=none;align=left;verticalAlign=top;spacingLeft=4;spacingRight=4;overflow=hidden;rotatable=0;points=[[0,0.5],[1,0.5]];portConstraint=eastwest;" parent="ztt1CMZew3dopwFVDvJa-31" vertex="1"><mxGeometry y="60" width="160" height="26" as="geometry"/></mxCell><mxCell id="ztt1CMZew3dopwFVDvJa-53" style="edgeStyle=orthogonalEdgeStyle;orthogonalLoop=1;jettySize=auto;html=1;exitX=0.5;exitY=0;exitDx=0;exitDy=0;curved=1;strokeColor=default;dashed=1;" parent="1" source="ztt1CMZew3dopwFVDvJa-35" edge="1"><mxGeometry relative="1" as="geometry"><mxPoint x="280" y="230" as="targetPoint"/><Array as="points"><mxPoint x="460" y="280"/><mxPoint x="280" y="280"/></Array></mxGeometry></mxCell><mxCell id="ztt1CMZew3dopwFVDvJa-35" value="Strategy3" style="swimlane;fontStyle=1;align=center;verticalAlign=top;childLayout=stackLayout;horizontal=1;startSize=26;horizontalStack=0;resizeParent=1;resizeParentMax=0;resizeLast=0;collapsible=1;marginBottom=0;strokeColor=#000000;fillColor=none;" parent="1" vertex="1"><mxGeometry x="380" y="320" width="160" height="86" as="geometry"/></mxCell><mxCell id="ztt1CMZew3dopwFVDvJa-36" value="   " style="text;strokeColor=none;fillColor=none;align=left;verticalAlign=top;spacingLeft=4;spacingRight=4;overflow=hidden;rotatable=0;points=[[0,0.5],[1,0.5]];portConstraint=eastwest;" parent="ztt1CMZew3dopwFVDvJa-35" vertex="1"><mxGeometry y="26" width="160" height="26" as="geometry"/></mxCell><mxCell id="ztt1CMZew3dopwFVDvJa-37" value="" style="line;strokeWidth=1;fillColor=none;align=left;verticalAlign=middle;spacingTop=-1;spacingLeft=3;spacingRight=3;rotatable=0;labelPosition=right;points=[];portConstraint=eastwest;" parent="ztt1CMZew3dopwFVDvJa-35" vertex="1"><mxGeometry y="52" width="160" height="8" as="geometry"/></mxCell><mxCell id="ztt1CMZew3dopwFVDvJa-38" value="+ doOperation(): int" style="text;strokeColor=none;fillColor=none;align=left;verticalAlign=top;spacingLeft=4;spacingRight=4;overflow=hidden;rotatable=0;points=[[0,0.5],[1,0.5]];portConstraint=eastwest;" parent="ztt1CMZew3dopwFVDvJa-35" vertex="1"><mxGeometry y="60" width="160" height="26" as="geometry"/></mxCell><mxCell id="ztt1CMZew3dopwFVDvJa-55" value="implements" style="text;html=1;align=center;verticalAlign=middle;resizable=0;points=[];autosize=1;strokeColor=none;" parent="1" vertex="1"><mxGeometry x="290" y="250" width="80" height="20" as="geometry"/></mxCell><mxCell id="ztt1CMZew3dopwFVDvJa-56" style="edgeStyle=orthogonalEdgeStyle;rounded=0;orthogonalLoop=1;jettySize=auto;html=1;exitX=0;exitY=0.5;exitDx=0;exitDy=0;entryX=1;entryY=0.866;entryDx=0;entryDy=0;entryPerimeter=0;" parent="1" source="ztt1CMZew3dopwFVDvJa-11" target="ztt1CMZew3dopwFVDvJa-21" edge="1"><mxGeometry relative="1" as="geometry"/></mxCell><mxCell id="ztt1CMZew3dopwFVDvJa-57" value="uses" style="text;html=1;align=center;verticalAlign=middle;resizable=0;points=[];autosize=1;strokeColor=none;" parent="1" vertex="1"><mxGeometry x="560" y="390" width="40" height="20" as="geometry"/></mxCell><mxCell id="-02N86jbiO1QQpY3wjho-1" value="&lt;br&gt;&lt;br&gt;" style="text;html=1;align=center;verticalAlign=middle;resizable=0;points=[];autosize=1;strokeColor=none;" parent="1" vertex="1"><mxGeometry x="300" y="55" width="20" height="30" as="geometry"/></mxCell><mxCell id="-02N86jbiO1QQpY3wjho-2" value="&lt;strong&gt;&amp;nbsp; &amp;nbsp; &amp;nbsp; &amp;nbsp; &amp;nbsp; &amp;nbsp; &amp;nbsp; &amp;nbsp; &amp;nbsp; &amp;nbsp; &amp;nbsp; &amp;nbsp; &amp;nbsp; &amp;nbsp; &amp;nbsp; &amp;nbsp; &amp;nbsp; &amp;nbsp; &amp;nbsp; &amp;nbsp; &amp;nbsp; &amp;nbsp; &amp;nbsp; &amp;nbsp; &amp;nbsp; &amp;nbsp;策略选择器是传入一个Enum类，然后根据传入Enum的不同，选择了不同的继承类&lt;/strong&gt;。从而实现了if else。优雅的过渡。" style="text;html=1;align=center;verticalAlign=middle;resizable=0;points=[];autosize=1;strokeColor=none;" parent="1" vertex="1"><mxGeometry x="-115" y="60" width="810" height="20" as="geometry"/></mxCell><mxCell id="-02N86jbiO1QQpY3wjho-3" value="&lt;b&gt;&amp;lt;interface&amp;gt;&lt;/b&gt;" style="text;html=1;strokeColor=none;fillColor=none;align=center;verticalAlign=middle;whiteSpace=wrap;rounded=0;" parent="1" vertex="1"><mxGeometry x="380" y="153" width="40" height="20" as="geometry"/></mxCell></root></mxGraphModel></diagram></mxfile>